<?xml version="1.0" standalone="no"?>
<!DOCTYPE svg PUBLIC "-//W3C//DTD SVG 20010904//EN"
 "http://www.w3.org/TR/2001/REC-SVG-20010904/DTD/svg10.dtd">
<svg version="1.0" xmlns="http://www.w3.org/2000/svg"
 width="512.000000pt" height="512.000000pt" viewBox="0 0 512.000000 512.000000"
 preserveAspectRatio="xMidYMid meet">
<metadata>
Created by potrace 1.14, written by Peter Selinger 2001-2017
</metadata>
<g transform="translate(0.000000,512.000000) scale(0.100000,-0.100000)"
fill="#000000" stroke="none">
<path d="M1390 5065 l0 -55 -55 0 -55 0 0 -50 0 -50 -55 0 -55 0 0 -55 0 -55
-50 0 -50 0 0 -55 0 -55 -55 0 -55 0 0 -1330 0 -1330 1655 0 1655 0 0 -55 0
-55 -1710 0 -1710 0 0 -55 0 -55 -50 0 -50 0 0 -265 0 -265 -55 0 -55 0 0 -55
0 -55 -55 0 -55 0 0 -50 0 -50 -50 0 -50 0 0 -55 0 -55 -55 0 -55 0 0 -55 0
-55 -55 0 -55 0 0 -50 0 -50 -50 0 -50 0 0 -55 0 -55 -55 0 -55 0 0 -215 0
-215 1655 0 1655 0 0 -50 0 -50 530 0 530 0 0 50 0 50 160 0 160 0 0 55 0 55
55 0 55 0 0 55 0 55 55 0 55 0 0 50 0 50 50 0 50 0 0 375 0 375 55 0 55 0 0
55 0 55 -105 0 -105 0 0 480 0 480 -160 0 -160 0 0 1385 0 1385 -1600 0 -1600
0 0 -55z m3200 -2770 l0 -55 -55 0 -55 0 0 -55 0 -55 -55 0 -55 0 0 -50 0 -50
-50 0 -50 0 0 50 0 50 50 0 50 0 0 55 0 55 55 0 55 0 0 55 0 55 55 0 55 0 0
-55z m-640 -960 l0 -55 -430 0 -430 0 0 55 0 55 430 0 430 0 0 -55z m-2880
-320 l0 -55 -55 0 -55 0 0 -55 0 -55 -55 0 -55 0 0 -50 0 -50 -50 0 -50 0 0
-55 0 -55 -55 0 -55 0 0 55 0 55 55 0 55 0 0 50 0 50 50 0 50 0 0 55 0 55 55
0 55 0 0 55 0 55 55 0 55 0 0 -55z m420 0 l0 -55 -50 0 -50 0 0 -55 0 -55 -55
0 -55 0 0 -50 0 -50 -55 0 -55 0 0 -55 0 -55 -50 0 -50 0 0 55 0 55 50 0 50 0
0 50 0 50 55 0 55 0 0 55 0 55 55 0 55 0 0 55 0 55 50 0 50 0 0 -55z m430 0
l0 -55 -55 0 -55 0 0 -55 0 -55 -50 0 -50 0 0 -50 0 -50 -55 0 -55 0 0 -55 0
-55 -55 0 -55 0 0 55 0 55 55 0 55 0 0 50 0 50 55 0 55 0 0 55 0 55 50 0 50 0
0 55 0 55 55 0 55 0 0 -55z m430 0 l0 -55 -55 0 -55 0 0 -55 0 -55 -55 0 -55
0 0 -50 0 -50 -50 0 -50 0 0 -55 0 -55 -55 0 -55 0 0 55 0 55 55 0 55 0 0 50
0 50 50 0 50 0 0 55 0 55 55 0 55 0 0 55 0 55 55 0 55 0 0 -55z m420 0 l0 -55
-50 0 -50 0 0 -55 0 -55 -55 0 -55 0 0 -50 0 -50 -55 0 -55 0 0 -55 0 -55 -50
0 -50 0 0 55 0 55 50 0 50 0 0 50 0 50 55 0 55 0 0 55 0 55 55 0 55 0 0 55 0
55 50 0 50 0 0 -55z m430 0 l0 -55 -55 0 -55 0 0 -55 0 -55 -50 0 -50 0 0 -50
0 -50 -55 0 -55 0 0 -55 0 -55 -55 0 -55 0 0 55 0 55 55 0 55 0 0 50 0 50 55
0 55 0 0 55 0 55 50 0 50 0 0 55 0 55 55 0 55 0 0 -55z"/>
</g>
</svg>
